<?xml version="1.0" standalone="no"?>
<!DOCTYPE svg PUBLIC "-//W3C//DTD SVG 20010904//EN"
 "http://www.w3.org/TR/2001/REC-SVG-20010904/DTD/svg10.dtd">
<svg version="1.0" xmlns="http://www.w3.org/2000/svg"
 width="1656.000000pt" height="1656.000000pt" viewBox="0 0 1656.000000 1656.000000"
 preserveAspectRatio="xMidYMid meet">
<metadata>
Created by potrace 1.11, written by Peter Selinger 2001-2013
</metadata>
<g transform="translate(0.000000,1656.000000) scale(0.100000,-0.100000)"
fill="#000000" stroke="none">
<path d="M1750 11548 c-182 -29 -333 -70 -440 -122 -73 -35 -190 -108 -190
-117 0 -5 -6 -9 -13 -9 -7 0 -19 -9 -27 -20 -8 -11 -18 -20 -22 -20 -12 0
-128 -123 -134 -142 -3 -10 -9 -18 -14 -18 -13 0 -87 -131 -118 -211 -39 -97
-57 -163 -65 -235 -2 -17 -6 -34 -8 -39 -7 -13 -3 -271 5 -310 3 -16 8 -48 12
-70 8 -51 59 -201 79 -232 9 -13 13 -23 10 -23 -3 0 6 -17 20 -37 14 -21 25
-43 25 -50 0 -7 4 -13 8 -13 4 0 16 -14 26 -32 31 -52 176 -191 251 -240 160
-105 370 -184 538 -202 23 -3 53 -8 67 -11 29 -6 310 -8 355 -1 71 9 114 17
143 26 18 5 32 6 32 3 0 -3 6 -1 13 5 6 5 28 13 47 17 44 9 174 73 237 116 45
30 203 181 203 194 0 3 14 24 31 48 17 23 37 57 44 75 27 62 37 39 30 -68 -13
-213 -15 -247 -18 -310 l-2 -65 175 0 175 0 0 555 0 555 -787 3 -788 2 0 -160
0 -160 576 0 577 0 -7 -32 c-12 -60 -68 -156 -124 -212 -114 -115 -276 -187
-507 -224 -50 -8 -342 -8 -371 0 -12 4 -39 9 -60 12 -59 10 -144 38 -191 63
-23 13 -49 23 -57 23 -9 0 -16 4 -16 9 0 5 -8 12 -17 15 -10 3 -36 21 -57 41
-21 19 -42 36 -46 37 -5 2 -73 86 -108 133 -14 19 -61 130 -65 155 -3 14 -10
43 -16 66 -13 49 -17 199 -7 269 14 102 77 266 112 296 8 6 14 15 14 19 0 12
79 91 125 126 88 67 236 134 330 148 22 3 56 9 75 13 19 3 107 6 195 6 301 -1
516 -69 646 -204 63 -65 88 -115 106 -209 2 -13 6 -27 9 -30 9 -8 419 -6 425
3 8 12 -18 154 -37 202 -27 69 -48 110 -58 117 -6 4 -7 8 -3 8 12 0 -82 120
-122 155 -19 16 -43 38 -55 49 -121 108 -413 227 -617 251 -24 3 -69 9 -98 14
-70 11 -378 10 -451 -1z"/>
<path d="M12048 11555 c-2 -1 -30 -5 -63 -9 -67 -7 -113 -13 -165 -23 -19 -4
-42 -7 -50 -8 -9 -1 -32 -7 -51 -14 -20 -6 -45 -13 -56 -15 -11 -3 -60 -21
-108 -41 -280 -116 -425 -304 -423 -550 1 -111 10 -151 54 -242 46 -94 122
-166 235 -220 83 -40 203 -76 289 -88 25 -3 53 -8 63 -11 25 -8 142 -18 317
-28 128 -8 293 -17 360 -21 79 -4 201 -18 220 -25 3 -1 8 -2 12 -1 11 1 112
-30 147 -46 56 -25 107 -79 120 -126 29 -102 -14 -188 -124 -245 -69 -36 -132
-52 -300 -79 -16 -2 -131 -6 -255 -8 -164 -3 -246 0 -304 10 -209 38 -333 99
-401 200 -29 42 -37 68 -44 137 -1 4 -102 7 -224 7 l-224 0 2 -53 c7 -162 117
-343 276 -453 139 -96 342 -168 579 -204 134 -20 536 -17 660 5 14 3 41 7 60
10 119 19 162 30 281 73 175 62 308 158 382 275 58 90 81 176 80 298 -1 61 -3
79 -18 140 -3 14 -7 30 -8 35 -2 6 -15 36 -30 66 -58 120 -191 223 -355 274
-26 9 -60 19 -77 25 -94 29 -348 61 -590 75 -147 8 -258 16 -295 20 -250 29
-338 56 -404 121 -34 35 -45 62 -47 117 -5 110 108 195 308 234 15 2 35 6 43
8 84 16 378 23 485 11 114 -13 223 -41 305 -79 53 -25 59 -29 115 -82 50 -47
73 -89 81 -148 l6 -42 212 1 c116 1 215 2 219 3 13 2 -3 120 -26 186 -11 33
-31 77 -44 97 -12 21 -23 40 -23 43 0 3 -12 19 -27 37 -24 27 -51 52 -123 118
-80 72 -352 184 -499 205 -14 2 -42 6 -61 9 -19 3 -53 8 -75 12 -39 5 -412 14
-417 9z"/>
<path d="M3668 11512 c-14 -3 -15 -112 -14 -1040 l1 -1037 1000 0 1000 0 3
181 2 181 -778 0 c-429 0 -783 3 -788 6 -7 4 -12 514 -5 562 1 7 241 10 698
10 l698 0 0 165 0 165 -475 2 c-261 2 -577 3 -701 3 l-225 0 0 220 0 220 788
0 788 0 -2 182 -3 182 -986 0 c-542 1 -992 0 -1001 -2z"/>
<path d="M6103 11510 c-18 -5 -18 -46 -18 -1040 l0 -1035 215 0 215 0 0 730
c0 402 2 732 5 735 5 5 68 -53 260 -240 54 -52 189 -183 301 -290 111 -107
230 -222 264 -255 34 -33 151 -145 260 -250 108 -104 254 -245 323 -312 l126
-122 196 2 195 2 1 1037 0 1036 -20 4 c-18 3 -371 2 -401 -1 -7 -1 -10 -247
-10 -732 0 -402 -2 -732 -6 -734 -3 -3 -49 37 -101 88 -52 51 -179 173 -283
272 -103 99 -225 216 -270 260 -46 44 -170 163 -276 265 -105 102 -220 212
-254 245 -90 88 -298 286 -329 314 -25 24 -30 24 -200 25 -96 1 -183 -1 -193
-4z"/>
<path d="M8720 11512 c-6 -2 -10 -72 -10 -183 l0 -179 458 0 459 0 1 -837 c0
-461 1 -848 1 -860 l1 -22 213 2 212 2 2 845 c1 465 2 851 2 858 1 9 100 12
460 12 l459 0 0 175 c-1 115 -5 178 -12 182 -10 7 -2226 11 -2246 5z"/>
<path d="M13760 11512 c-7 -3 -10 -358 -10 -1041 l0 -1038 1003 1 1002 1 0
180 0 180 -785 1 -785 1 -2 24 c-2 33 -4 232 -3 244 1 6 1 76 0 158 -1 135 0
147 17 148 10 0 325 1 701 2 l682 0 1 36 c1 37 1 266 0 288 -1 10 -108 13
-478 12 -263 0 -578 0 -701 1 l-222 0 0 220 1 220 787 0 788 0 0 180 c0 99 -2
180 -5 181 -17 3 -1983 3 -1991 1z"/>
<path d="M7937 8804 c-1 -2 -34 -6 -72 -9 -109 -9 -170 -17 -225 -32 -14 -3
-27 -7 -30 -8 -3 0 -23 -4 -45 -9 -22 -4 -44 -11 -50 -14 -5 -4 -16 -8 -22 -9
-73 -16 -223 -91 -287 -143 -21 -17 -95 -91 -114 -114 -24 -30 -69 -112 -77
-141 -4 -17 -9 -34 -11 -40 -12 -40 -16 -80 -17 -145 -1 -226 116 -392 340
-483 58 -23 167 -54 223 -63 14 -2 39 -6 55 -9 17 -2 50 -7 75 -10 132 -14
147 -16 410 -30 254 -13 316 -19 451 -39 65 -10 174 -56 210 -89 63 -57 82
-154 45 -226 -18 -34 -95 -103 -107 -95 -5 3 -9 1 -9 -4 0 -5 -26 -17 -57 -27
-32 -10 -69 -21 -83 -26 -14 -4 -47 -11 -75 -15 -27 -4 -59 -8 -70 -10 -79
-16 -398 -22 -495 -10 -222 27 -352 76 -445 170 -49 49 -75 103 -75 154 0 11
-6 22 -12 24 -7 2 -107 4 -223 4 l-210 -1 2 -63 c6 -230 199 -445 503 -560
104 -40 265 -77 376 -88 33 -3 75 -7 94 -9 48 -5 304 -5 365 -1 427 32 717
145 866 336 78 101 108 192 107 331 -2 191 -72 330 -217 429 -49 32 -119 69
-136 69 -3 0 -18 7 -33 14 -32 17 -171 53 -227 61 -22 2 -47 7 -55 10 -18 6
-93 15 -180 22 -36 2 -94 7 -130 10 -36 2 -101 7 -145 9 -179 10 -317 23 -420
40 -48 7 -168 44 -175 53 -3 4 -14 12 -25 18 -40 22 -77 80 -79 125 -7 117 71
192 250 239 43 11 103 23 134 25 30 3 73 8 95 10 61 6 283 6 345 0 259 -27
427 -110 491 -243 12 -24 22 -57 23 -73 0 -21 7 -31 21 -34 11 -2 110 -3 220
-2 l200 2 0 25 c1 72 -56 251 -92 288 -7 7 -13 17 -13 20 0 16 -161 172 -177
172 -3 0 -14 6 -22 14 -64 56 -328 154 -459 171 -20 2 -48 7 -62 9 -80 15
-432 31 -443 20z"/>
<path d="M4 8761 c-2 -2 -4 -471 -4 -1042 l0 -1037 41 -4 c22 -2 43 0 45 4 3
5 10 6 15 3 12 -8 138 -10 145 -2 3 3 18 2 32 -1 25 -7 53 -7 77 -2 6 1 25 1
43 0 l32 -2 0 464 0 464 665 -1 c366 0 666 2 666 5 7 29 2 330 -6 331 -5 0
-306 1 -667 1 l-658 0 0 228 0 229 49 -2 c27 -1 47 1 44 5 -2 5 6 5 19 0 13
-4 38 -6 56 -4 17 1 40 2 50 2 205 -2 409 -2 417 0 6 1 15 1 20 0 29 -5 344
-2 353 4 7 4 12 4 12 -1 0 -10 293 -9 309 1 6 4 11 4 11 -1 0 -4 32 -8 70 -8
l70 0 0 183 c0 182 0 182 -22 182 -162 4 -1881 4 -1884 1z"/>
<path d="M2289 8762 l-47 -3 1 -1034 c0 -825 2 -1037 12 -1045 7 -6 16 -7 19
-2 2 4 30 5 60 2 31 -3 57 -3 58 1 2 4 23 4 48 0 25 -4 59 -4 75 -1 17 3 49 3
73 -1 23 -3 42 -2 42 3 0 5 9 7 20 3 10 -3 43 -6 72 -5 29 0 62 0 73 0 11 -1
27 -1 35 -1 23 1 174 0 185 0 8 -1 66 0 158 1 9 0 23 0 30 1 15 0 121 0 166
-1 19 0 38 -3 42 -6 4 -2 10 0 13 5 4 5 19 7 34 4 15 -3 33 -5 40 -4 23 2 37
2 97 2 108 0 138 -2 147 -7 4 -3 8 -2 8 3 0 4 44 7 97 5 54 -1 127 -2 163 -1
36 0 76 0 90 -1 32 -2 65 -2 113 1 l37 2 -2 181 -3 181 -780 1 c-429 1 -783 2
-786 3 -3 1 -6 129 -6 286 l-1 285 701 2 701 3 1 158 c0 88 -2 162 -5 166 -3
4 -318 7 -700 7 l-695 0 -1 220 -1 221 151 0 c83 0 156 2 161 3 6 1 15 1 20 0
29 -5 344 -2 353 4 7 4 12 4 12 -1 0 -10 293 -9 309 1 6 4 11 4 11 -1 0 -7
226 -9 255 -3 6 1 12 1 15 0 17 -6 258 -4 273 3 15 7 17 26 17 182 l0 175 -77
0 c-444 3 -1849 4 -1884 2z"/>
<path d="M4689 8762 l-45 -3 0 -1034 c1 -568 3 -1036 7 -1039 3 -3 30 -6 60
-6 29 0 90 0 134 -1 44 0 85 0 90 0 8 -1 69 0 158 1 9 0 23 0 30 1 15 0 121 0
166 -1 19 0 38 -3 42 -6 4 -2 10 0 13 5 4 5 19 7 34 4 15 -3 33 -5 40 -4 23 2
37 2 97 2 108 0 138 -2 147 -7 4 -3 8 -2 8 3 0 4 44 7 97 5 54 -1 127 -2 163
-1 36 0 76 0 90 -1 14 -1 39 -2 55 -1 112 2 137 1 144 -4 5 -3 11 -1 13 4 1 5
23 6 48 2 25 -4 59 -4 75 -1 17 3 49 3 73 -1 23 -3 42 -2 42 3 0 5 9 7 20 3
10 -3 43 -6 72 -5 29 0 61 1 71 1 16 0 17 16 17 183 l0 182 -777 -1 c-428 0
-783 1 -788 2 -7 3 -11 98 -10 286 l0 282 700 5 700 5 0 165 0 165 -700 0
-700 1 0 219 0 220 127 0 c69 0 124 3 121 7 -2 5 6 5 19 0 13 -4 38 -6 56 -4
17 1 40 2 50 2 9 0 130 -1 269 -3 138 -1 249 1 246 5 -2 5 6 5 19 0 13 -4 38
-6 56 -4 17 1 40 2 50 2 100 -1 531 -1 545 -1 16 1 17 15 15 182 l-3 181 -955
2 c-525 0 -975 0 -1001 -2z"/>
<path d="M9310 8760 l-35 -5 0 -173 c0 -96 3 -176 8 -179 13 -8 142 -7 155 1
7 4 12 4 12 -1 0 -7 226 -9 255 -3 6 1 15 1 20 0 6 -1 113 -2 239 -3 l229 -2
0 -857 0 -858 46 -1 c25 -1 50 -1 55 0 16 3 79 2 109 -2 15 -3 30 -1 32 4 3 4
18 4 33 1 15 -4 56 -5 91 -2 l65 5 0 858 0 859 23 -5 c13 -2 23 0 23 5 0 5 5
6 12 2 15 -9 341 -9 356 0 7 4 12 4 12 -1 0 -10 293 -9 309 1 6 4 11 4 11 -1
0 -9 153 -9 167 0 9 6 10 344 1 353 -7 7 -2179 11 -2228 4z"/>
<path d="M11855 8762 l-80 -3 0 -1037 0 -1037 35 -5 c19 -3 49 -3 65 0 17 3
49 3 72 -1 23 -3 44 -2 45 2 2 4 23 4 48 0 25 -4 59 -4 75 -1 17 3 49 3 73 -1
23 -3 42 -2 42 3 0 5 9 7 20 3 10 -3 43 -6 72 -5 29 0 62 0 73 0 11 -1 27 -1
35 -1 23 1 174 0 185 0 8 -1 66 0 158 1 9 0 23 0 30 1 15 0 121 0 166 -1 19 0
38 -3 42 -6 4 -2 10 0 13 5 4 5 19 7 34 4 15 -3 33 -5 40 -4 23 2 37 2 97 2
108 0 138 -2 147 -7 4 -3 8 -2 8 3 0 4 44 7 97 5 54 -1 127 -2 163 -1 36 0 71
1 78 0 61 -3 84 -2 88 1 4 4 7 222 5 328 l-1 36 -787 0 -788 0 0 284 0 285
700 5 700 5 1 163 c1 115 -2 162 -10 163 -6 1 -317 3 -691 4 -374 2 -684 3
-690 4 -6 1 -10 81 -10 219 l0 217 185 1 c102 1 190 3 195 4 6 1 15 1 20 0 30
-6 402 -4 398 2 -2 5 6 5 19 0 13 -4 38 -6 56 -4 17 1 40 2 50 2 9 0 130 -1
269 -3 148 -1 249 2 245 7 -3 5 1 6 8 1 13 -8 118 -11 125 -3 3 2 6 84 7 181
3 171 2 177 -17 178 -92 2 -1848 3 -1910 1z"/>
<path d="M14203 8762 c-13 -2 -24 -6 -24 -10 -6 -32 -2 -2065 3 -2068 6 -4
289 -7 399 -5 l25 1 0 728 c-1 400 0 733 2 739 3 8 14 2 32 -15 26 -26 336
-326 551 -532 206 -198 444 -427 509 -490 447 -432 477 -459 496 -429 3 5 10
7 15 4 11 -8 188 -9 195 -2 3 3 16 2 30 -2 14 -3 42 -5 63 -3 l39 4 0 1039 0
1039 -47 1 c-65 0 -222 0 -311 0 l-75 -1 1 -740 1 -741 -35 33 c-19 18 -89 85
-156 149 -66 65 -153 148 -192 185 -40 38 -163 157 -274 264 -112 107 -230
221 -264 253 -34 33 -155 150 -270 260 -226 219 -276 267 -324 310 l-30 29
-169 1 c-92 1 -178 1 -190 -1z"/>
<path d="M11343 5649 c-70 -23 -109 -52 -133 -99 -67 -131 34 -249 217 -259
62 -3 150 20 183 49 30 26 40 25 40 -1 0 -42 -24 -100 -56 -138 -38 -44 -116
-85 -151 -78 -13 2 -26 1 -29 -4 -2 -4 -10 -6 -17 -4 -7 2 -31 6 -54 9 -22 3
-52 8 -65 11 -20 5 -29 1 -42 -20 -20 -30 -14 -42 25 -51 167 -39 307 -12 397
77 113 112 115 324 5 441 -29 30 -102 68 -133 68 -11 0 -20 3 -20 8 0 14 -115
8 -167 -9z m204 -82 c72 -38 91 -111 42 -163 -63 -67 -249 -56 -287 18 -26 49
-21 74 24 136 1 2 20 10 41 17 48 17 139 13 180 -8z"/>
<path d="M10845 5567 l-180 -92 -1 -55 c-2 -63 2 -74 19 -60 17 14 79 55 97
63 8 4 53 31 100 61 47 30 86 53 87 52 1 -1 3 -112 3 -247 l1 -245 60 0 c44 1
60 5 63 16 2 8 3 145 2 305 l-1 289 -35 2 c-27 2 -76 -19 -215 -89z"/>
<path d="M13385 5646 c-73 -14 -144 -48 -167 -80 -24 -33 -32 -90 -17 -118 14
-29 55 -65 82 -74 17 -5 11 -11 -33 -33 -77 -37 -96 -69 -91 -149 0 -12 19
-40 41 -62 71 -69 226 -100 398 -78 126 16 197 53 230 118 34 70 0 139 -88
177 l-34 15 38 23 c99 60 102 155 6 218 -71 46 -241 66 -365 43z m215 -79 c69
-14 110 -48 110 -92 0 -55 -100 -94 -220 -88 -100 5 -142 22 -167 67 -44 79
116 144 277 113z m45 -267 c45 -13 95 -57 95 -85 0 -61 -65 -104 -164 -110
-34 -2 -67 -5 -72 -6 -5 -1 -11 -1 -14 0 -3 1 -25 4 -49 6 -91 8 -151 48 -151
102 0 54 45 87 145 105 40 8 165 0 210 -12z"/>
<path d="M12649 5645 c-2 -1 -26 -5 -54 -8 -27 -3 -73 -13 -101 -21 -48 -15
-50 -17 -48 -48 1 -18 3 -41 3 -50 1 -16 5 -16 55 2 66 22 165 34 269 32 131
-3 197 -31 197 -86 0 -47 -35 -68 -205 -121 -192 -60 -292 -113 -323 -172 -13
-24 -23 -122 -13 -124 19 -4 638 -4 649 -1 9 3 12 20 11 52 l-2 48 -264 -1
c-145 -1 -263 1 -263 4 0 26 84 63 235 104 104 28 198 63 203 77 2 4 9 8 16 8
14 0 59 45 75 77 17 34 13 102 -8 137 -40 65 -139 94 -315 95 -63 0 -116 -2
-117 -4z"/>
<path d="M14318 5639 c-5 -3 -8 -28 -6 -55 l3 -49 185 -1 c102 -1 193 -2 202
-3 14 -1 17 -12 17 -58 1 -32 1 -65 2 -73 3 -56 -11 -161 -24 -187 -26 -50
-78 -76 -155 -76 -122 -2 -176 46 -185 160 l-2 33 -67 0 -66 0 4 -49 c11 -135
94 -218 235 -236 206 -28 346 42 378 187 12 52 18 395 7 405 -8 9 -514 10
-528 2z"/>
<path d="M14985 5455 c3 -206 4 -213 34 -277 50 -108 140 -149 310 -144 119 4
144 10 201 44 54 34 95 90 111 157 11 45 21 375 12 400 -4 12 -108 13 -120 1
-4 -4 -8 -85 -9 -181 -1 -181 -7 -218 -48 -263 -36 -41 -76 -55 -156 -55 -83
-1 -125 15 -166 61 -31 36 -37 79 -40 267 -1 88 -2 165 -3 170 -1 6 -28 11
-65 10 l-64 0 3 -190z"/>
<path d="M15771 5630 c-5 -12 -6 -425 -2 -560 l1 -25 288 0 287 0 -1 50 0 50
-195 2 c-106 1 -205 2 -219 2 l-26 1 1 241 c0 132 -2 243 -5 247 -3 4 -31 7
-63 7 -43 0 -61 -4 -66 -15z"/>
<path d="M16405 5640 c-3 -5 -7 -134 -6 -170 1 -8 0 -37 0 -65 -1 -27 -1 -54
0 -60 0 -5 1 -74 2 -152 1 -96 5 -143 13 -145 9 -4 101 -3 116 1 8 2 5 580 -3
588 -9 8 -117 11 -122 3z"/>
<path d="M11959 5300 c-13 -50 -14 -50 110 -50 l116 0 0 25 c0 14 -4 26 -10
26 -32 4 -215 3 -216 -1z"/>
</g>
</svg>
